<?xml version="1.0" encoding="UTF-8"?>
<svg width="46px" height="46px" viewBox="0 0 46 46" version="1.1" xmlns="http://www.w3.org/2000/svg" xmlns:xlink="http://www.w3.org/1999/xlink">
    <!-- Generator: Sketch 52.6 (67491) - http://www.bohemiancoding.com/sketch -->
    <title>保护文物</title>
    <desc>Created with Sketch.</desc>
    <defs>
        <path d="M23.5,45 C26.0013891,45 28.3868285,36.9199043 30.5631667,36.034562 C37.2763812,33.3036019 42,26.7967127 42,19.2042033 C42,9.15029942 33.7172679,1 23.5,1 C13.2827321,1 5,9.15029942 5,19.2042033 C5,26.7532281 9.66966662,33.2290325 16.3216838,35.9872679 C18.5289223,36.9024915 20.9544197,45 23.5,45 Z" id="path-1"></path>
        <filter x="-27.0%" y="-22.7%" width="159.5%" height="150.0%" filterUnits="objectBoundingBox" id="filter-2">
            <feOffset dx="1" dy="1" in="SourceAlpha" result="shadowOffsetOuter1"></feOffset>
            <feGaussianBlur stdDeviation="3.5" in="shadowOffsetOuter1" result="shadowBlurOuter1"></feGaussianBlur>
            <feColorMatrix values="0 0 0 0 0.0156862745   0 0 0 0 0.376470588   0 0 0 0 0.933333333  0 0 0 0.199671649 0" type="matrix" in="shadowBlurOuter1"></feColorMatrix>
        </filter>
    </defs>
    <g id="保护文物" stroke="none" stroke-width="1" fill="none" fill-rule="evenodd">
        <g id="椭圆形-copy-4">
            <use fill="black" fill-opacity="1" filter="url(#filter-2)" xlink:href="#path-1"></use>
            <use fill="#0460EE" fill-rule="evenodd" xlink:href="#path-1"></use>
        </g>
        <g id="文物_复制" transform="translate(12.000000, 8.000000)" fill="#FFFFFF" fill-rule="nonzero">
            <path d="M6.48648457,12.2895284 C7.52476188,12.2867555 8.49648649,12.0697115 9.32859616,11.6944982 C9.94062633,10.6313486 10.8220525,9.7454427 11.8789262,9.13223615 C11.9951368,8.79405283 12.0570934,8.43953923 12.0570934,8.07429631 C12.0570934,7.73297508 12.0018031,7.40168205 11.8998773,7.084251 C11.3093582,8.92748647 9.11038811,10.3019935 6.48648641,10.3089258 C3.86246391,10.315788 1.6642054,8.95293904 1.07380454,7.11279422 C0.971990855,7.43072681 0.916700513,7.76221678 0.916700513,8.10345398 C0.916700486,10.4232667 3.40997564,12.2975216 6.48648824,12.2895389 L6.48648457,12.2895284 Z M6.48648457,15.2667411 C7.15778327,15.2649765 7.80132388,15.1737222 8.39730734,15.0079912 C8.41719393,14.274735 8.54914571,13.5698252 8.77613389,12.9096759 C8.07777822,13.1494075 7.30270509,13.2839912 6.48648719,13.286176 C3.8624647,13.2930663 1.66420619,11.930163 1.07380533,10.0900444 C0.971991643,10.407977 0.9167013,10.7394407 0.9167013,11.0808171 C0.916701274,13.4005195 3.40997642,15.2748059 6.48648903,15.2667445 L6.48648457,15.2667411 Z M6.48648457,18.204802 C7.34499737,18.2025333 8.15807998,18.053748 8.88438805,17.7902636 C8.65622427,17.2123488 8.50236845,16.5964796 8.43438989,15.9547587 C7.82809989,16.1271558 7.17181592,16.2224164 6.48648457,16.2242361 C3.86246207,16.2311544 1.66420357,14.8682783 1.07380271,13.0281308 C0.971989017,13.3460634 0.916698675,13.6775534 0.916698675,14.0189324 C0.916698675,16.338577 3.4099738,18.2129212 6.48648641,18.2048073 L6.48648457,18.204802 Z M6.48648457,19.1027528 C3.86246207,19.1096711 1.66420357,17.746795 1.07380271,15.9066475 C0.971989017,16.2245801 0.916698675,16.5560701 0.916698675,16.8974491 C0.916698675,19.2171226 3.4099738,21.0914116 6.48648641,21.0833239 C7.93840407,21.0794867 9.26043039,20.6569114 10.2520381,19.9679931 C9.85803139,19.5408242 9.51612196,19.0641604 9.2370365,18.5478931 C8.42563445,18.8984022 7.48704308,19.1001243 6.48648903,19.102758 L6.48648457,19.1027528 Z M6.48648457,9.31867825 C9.56300768,9.31055556 12.0571126,7.42295423 12.0571126,5.10336735 C12.0571126,2.78307674 9.56294203,0.908669549 6.48648457,0.916678455 C3.40996146,0.924829159 0.916696836,2.8124865 0.916696836,5.13267208 C0.916696836,7.45234561 3.40997196,9.32668716 6.48648457,9.31867825 Z M4.67747732,3.83470399 L8.26586149,3.83470399 L8.45570855,6.13550013 L4.48764968,6.13550013 L4.67746865,3.83470396 L4.67747732,3.83470399 Z M13.9394762,18.8719125 C13.0000997,19.1845802 12.2763964,19.7195016 11.9333658,20.0056717 C12.8764106,20.6685387 14.0229158,21.0576167 15.259688,21.0576167 C16.486298,21.0576167 17.6240933,20.6748986 18.562745,20.0219442 C17.1621684,18.7036598 15.6079048,18.3165433 13.9394788,18.8719098 L13.9394762,18.8719125 Z M13.9612394,11.5440252 C15.6306763,12.0914957 17.1854152,11.6947993 18.5856347,10.3651693 C17.6426739,9.70241255 16.4963105,9.3134764 15.2597064,9.3134764 C14.0124517,9.3134764 12.8569004,9.70905075 11.9092524,10.3822558 C12.2456711,10.6653457 12.9933801,11.2265679 13.961242,11.5440252 L13.9612394,11.5440252 Z M20.0367961,11.8267502 C19.7650789,12.1504807 19.1845014,12.9200368 18.8602667,13.9249814 C18.318988,15.6027371 18.7081203,17.1656214 20.0164351,18.5738761 C20.6883772,17.6165176 21.083366,16.4475507 21.083366,15.1855045 C21.083366,13.936375 20.6962207,12.7785812 20.0367988,11.8267528 L20.0367961,11.8267502 Z M11.5927562,13.9030501 C11.2782398,12.9422202 10.7366513,12.2049019 10.4560822,11.8653741 C9.81279367,12.8097923 9.43603893,13.9531858 9.43603893,15.1855518 C9.43603893,16.4316012 9.8212516,17.5867324 10.4777614,18.5371874 C11.7646483,17.1321284 12.1399457,15.5743908 11.5927562,13.9030501 Z M18.2115531,13.6847457 C18.61542,12.4510773 19.3426813,11.5605498 19.6001978,11.2709898 C19.453373,11.1056229 19.2974165,10.9487429 19.1330868,10.8010508 C17.8246337,12.0755567 16.5104639,12.4749412 15.3777498,12.4749412 C14.7626657,12.4749412 14.2011363,12.3573022 13.7229888,12.1981245 C12.5397083,11.8043147 11.6747805,11.10551 11.3594239,10.825109 C11.1939171,10.9757429 11.0371218,11.1359281 10.8896529,11.3046009 C11.1695498,11.6251384 11.8593346,12.4954991 12.2486357,13.6847194 C12.6935633,15.0435893 12.8113153,17.0705701 10.9102949,19.0898125 C11.0580159,19.2569999 11.2150351,19.4156437 11.3806278,19.564851 C11.7122858,19.2731062 12.5653079,18.5958966 13.7229888,18.2105448 C15.0772372,17.7597641 17.1005943,17.6419833 19.1128519,19.5880978 C19.2772104,19.4416931 19.4334734,19.2862986 19.580551,19.1223313 C17.6474898,17.092357 17.7643174,15.0508919 18.2115689,13.6847562 L18.2115531,13.6847457 Z M16.6836191,16.6456517 L13.8062158,16.6456517 L13.8062158,13.7435127 L16.6836191,13.7435127 L16.6836191,16.6456517 Z" id="形状"></path>
        </g>
    </g>
</svg>