<?xml version="1.0" encoding="UTF-8"?>
<svg width="46px" height="46px" viewBox="0 0 46 46" version="1.1" xmlns="http://www.w3.org/2000/svg" xmlns:xlink="http://www.w3.org/1999/xlink">
    <!-- Generator: Sketch 52.6 (67491) - http://www.bohemiancoding.com/sketch -->
    <title>博物馆</title>
    <desc>Created with Sketch.</desc>
    <defs>
        <path d="M23.5,45 C26.0013891,45 28.3868285,36.9199043 30.5631667,36.034562 C37.2763812,33.3036019 42,26.7967127 42,19.2042033 C42,9.15029942 33.7172679,1 23.5,1 C13.2827321,1 5,9.15029942 5,19.2042033 C5,26.7532281 9.66966662,33.2290325 16.3216838,35.9872679 C18.5289223,36.9024915 20.9544197,45 23.5,45 Z" id="path-1"></path>
        <filter x="-27.0%" y="-22.7%" width="159.5%" height="150.0%" filterUnits="objectBoundingBox" id="filter-2">
            <feOffset dx="1" dy="1" in="SourceAlpha" result="shadowOffsetOuter1"></feOffset>
            <feGaussianBlur stdDeviation="3.5" in="shadowOffsetOuter1" result="shadowBlurOuter1"></feGaussianBlur>
            <feColorMatrix values="0 0 0 0 0.0156862745   0 0 0 0 0.376470588   0 0 0 0 0.933333333  0 0 0 0.199671649 0" type="matrix" in="shadowBlurOuter1"></feColorMatrix>
        </filter>
    </defs>
    <g id="博物馆" stroke="none" stroke-width="1" fill="none" fill-rule="evenodd">
        <g id="椭圆形-copy-2">
            <use fill="black" fill-opacity="1" filter="url(#filter-2)" xlink:href="#path-1"></use>
            <use fill="#0460EE" fill-rule="evenodd" xlink:href="#path-1"></use>
        </g>
        <g id="广东省博物馆-copy" transform="translate(8.000000, 3.000000)">
            <g id="分组">
                <rect id="矩形" fill="#000000" opacity="0" x="0" y="0" width="31" height="31"></rect>
                <path d="M26.714283,20.6157785 L26.6837055,20.4377732 L26.5797976,20.4377732 L26.4957792,20.057506 L26.6218069,20.0303994 L26.3288265,18.0200794 L25.9739786,17.9658971 L25.9109647,17.6127056 L26.2658127,17.6397812 L26.1409312,16.4988868 L25.9319693,16.4712535 L25.7649857,15.1672856 L25.9739786,15.1672856 L25.6809672,13.6460929 L24.9501737,13.4830195 L25.2216228,15.3574037 L25.0751171,15.3574037 L24.9916873,14.9229542 L24.6157727,14.8140631 L24.4272888,13.4283106 L21.2101431,12.7766055 L21.3770958,14.2165092 L21.0641951,14.2165092 L20.9177204,12.6947899 L18.6612727,12.2874161 L18.7657382,13.8633176 L18.4523418,13.8086087 L18.3268408,12.1785249 L14.1688554,11.390853 L14.2528739,13.8633176 L13.8139765,13.8633176 L13.7509626,11.3095951 L12.4978108,11.0647371 L12.4353237,13.7002442 L10.9934401,13.5371708 L11.0144447,13.2381615 L11.8919608,13.3470527 L11.8081901,10.9287393 L8.904193,10.3853987 L8.904193,11.390853 L9.42630342,11.4997442 L9.36384719,12.3415674 L8.48630019,12.2332339 L8.50702599,10.2770342 L7.94293731,10.2228519 L7.81771508,12.0430538 L7.21186501,11.9883139 L7.31636143,10.0868541 L5.79098609,9.81492047 L4.5165509,16.117907 L4.16768214,20.6156855 L1.28701317,20.6156856 L1.28701317,22.3021202 L29.5890348,22.3021202 L29.5890348,20.6156856 L26.714283,20.6156856 L26.714283,20.6157785 Z M24.6361887,16.4712225 L24.8247346,16.4712225 L25.0751172,18.6175713 L25.9109337,18.7264625 L25.952881,19.1879876 L24.8451197,19.1338363 L24.9916253,20.3294087 L24.4272268,20.3294087 L24.2812788,18.644647 L24.8871289,18.644647 L24.6361887,16.4712225 Z M23.1531324,14.623945 L22.7772489,14.5426871 L22.6517788,13.4830505 L23.2576289,13.6184907 L23.4455552,15.1402409 L24.4482624,15.2762077 L24.4482624,15.6294302 L23.4455552,15.5476147 L23.5920608,16.9875184 L22.6097386,16.9333672 L22.5262778,16.0097284 L23.3620943,16.1456952 L23.1531324,14.623945 Z M21.4190741,16.9333362 L23.0276624,17.1234853 L23.3620944,20.1663972 L22.8187005,20.1122459 L22.5262778,17.53089 L21.4191051,17.4225255 L21.419105,16.9333362 L21.4190741,16.9333362 Z M19.6850157,13.2929014 L20.4163048,13.4283416 L20.7291745,17.0417007 L20.5202436,17.0964097 L20.3112817,15.2214988 L18.8282255,15.0313498 L18.8077785,14.6781273 L19.7894811,14.7870494 L19.6850157,13.2929014 Z M19.0581919,16.1456642 L19.4760538,15.9825908 L19.5805502,17.1234853 L17.9719309,17.069334 L17.9299526,16.0909554 L19.0581919,16.1456642 Z M16.1544426,14.1347556 L16.2793551,17.0964096 L17.449015,17.1505919 L17.763,17.0146251 L17.8669388,18.2914554 L17.3865278,18.5092378 L17.3660808,18.6723112 L17.5120598,18.6993868 L17.5750427,20.0845817 L15.9659277,20.1122769 L15.8194221,16.6614026 L14.7747055,16.5259934 L14.6707667,13.9446376 L16.1544426,14.1347556 Z M14.524323,17.9929728 L14.544739,20.3969739 L14.2301654,20.3844583 L14.1688864,18.5092687 L13.5840719,18.4821931 L13.5630363,17.9111882 L14.524323,17.9929728 Z M11.1606716,17.5579657 L11.7872166,17.5579657 L11.8499516,15.3574347 L12.1426531,15.3574347 L12.1216485,16.6613716 L13.2711403,16.7702628 L13.2711403,17.2323455 L12.1843836,17.2323455 L12.1426531,19.7590234 L11.3068675,19.7590234 L11.2651371,17.7210081 L9.86523184,17.585599 L9.84422722,17.4225255 L11.1606716,17.5579657 Z M7.48334511,12.9396789 L9.05045088,13.1840103 L9.05045088,13.4283416 L9.90696229,13.5372328 L9.88626746,15.0860587 L10.4500773,15.1673166 L10.4500773,15.4116479 L9.90699326,15.3574656 L9.88629843,16.2269531 L8.06846939,16.036835 L8.06846939,15.8195793 L8.88325038,15.9008372 L8.98774681,13.591415 L7.46261931,13.320039 L7.48334511,12.9396789 Z M8.0474338,16.0638487 L7.99188619,16.7337385 L7.77604666,16.7249405 L7.80395989,16.0279131 L8.0474338,16.0638487 Z M7.19092239,17.9382019 L8.29840492,18.0200794 L8.25878117,20.1465706 L7.89975089,20.1322583 L7.88051215,18.2914554 L7.16988683,18.2373041 L7.19092239,17.9382019 Z M5.66582586,10.4578586 L5.53344717,12.2332958 L5.56826898,12.1879736 L5.44998633,14.2071845 L5.3941289,14.2978291 L5.52650759,12.2874781 L5.50550297,12.2963381 L5.63097305,10.6391787 L5.66582586,10.4578586 Z M5.48606106,11.5174641 C5.48606106,11.5174641 5.52654082,11.3677117 5.54103772,11.302315 C5.54248742,11.2849358 5.54371406,11.2746508 5.54475488,11.2731638 C5.54776576,11.2687028 5.54575849,11.2811564 5.54103772,11.302315 C5.52497964,11.4982262 5.48606106,12.613594 5.48606106,12.613594 L5.35242948,12.9850321 L5.48606106,11.5174641 Z M5.41513355,15.0042122 L6.81476,15.140179 L6.81476,15.656413 L5.39412893,15.5205081 L5.28963251,15.7647775 L5.31063713,15.2761458 L5.41513355,15.0042122 Z M4.92711678,14.6421606 L5.07242931,14.370196 L5.07242931,14.6509896 L5.01151957,14.7504942 L5.01151957,15.067781 L4.87867931,15.2761458 L4.92711678,14.6421606 Z M5.02515398,14.8594163 L5.06691537,14.632774 L5.12246298,14.5426871 L5.26178125,12.4505206 L5.30379048,12.3869517 L5.1714118,14.623945 L5.06694634,14.9589209 L4.94838487,17.1323453 L4.87180164,17.3047744 L5.02515398,14.8594163 Z M5.20620264,16.5436204 L5.03897117,17.0510564 L4.95523151,18.4367779 L4.92068852,18.4909292 L5.01105794,16.7337076 L5.21308025,16.1361847 L5.20620264,16.5436204 Z M5.3092734,17.3860323 L5.17095965,18.7900624 L5.1155234,18.7900624 L5.2401165,17.4313856 L5.3092734,17.3860323 Z M4.7158904,17.1870542 L4.80224642,17.0057341 L4.8775324,16.8608763 L4.80224642,17.7480528 L4.74833378,17.865804 L4.6837824,17.8752216 L4.77013842,17.2323455 L4.7158904,17.1870542 Z M4.91929385,17.7480528 L4.91929385,18.0924463 L4.72554385,18.4091756 L4.72554385,18.0653707 L4.91929385,17.7480528 Z M4.57547161,16.6159873 L4.6725891,15.7106262 L4.72114787,15.6111216 L4.74518471,15.6746905 L4.70912943,15.7741951 L4.61201193,16.6613716 L4.59999349,16.7791227 L4.55143471,16.7520161 L4.57547161,16.6159873 Z M20.667276,18.4185622 L21.3146086,18.4727445 L21.3494304,18.8441826 L21.7883278,18.9077515 L21.8093634,19.0702673 L21.3770958,19.0979316 L21.4538959,20.1752262 L20.9945515,20.2929464 L21.0060761,20.6157785 L20.8340427,20.6157785 L20.667276,18.4185622 Z" id="形状" fill="#FFFFFF" fill-rule="nonzero"></path>
            </g>
        </g>
    </g>
</svg>