<?xml version="1.0" encoding="UTF-8"?>
<svg width="46px" height="46px" viewBox="0 0 46 46" version="1.1" xmlns="http://www.w3.org/2000/svg" xmlns:xlink="http://www.w3.org/1999/xlink">
    <!-- Generator: Sketch 52.6 (67491) - http://www.bohemiancoding.com/sketch -->
    <title>厕所</title>
    <desc>Created with Sketch.</desc>
    <defs>
        <path d="M23,45 C25.5013891,45 27.8868285,36.9199043 30.0631667,36.034562 C36.7763812,33.3036019 41.5,26.7967127 41.5,19.2042033 C41.5,9.15029942 33.2172679,1 23,1 C12.7827321,1 4.5,9.15029942 4.5,19.2042033 C4.5,26.7532281 9.16966662,33.2290325 15.8216838,35.9872679 C18.0289223,36.9024915 20.4544197,45 23,45 Z" id="path-1"></path>
        <filter x="-27.0%" y="-22.7%" width="159.5%" height="150.0%" filterUnits="objectBoundingBox" id="filter-2">
            <feOffset dx="1" dy="1" in="SourceAlpha" result="shadowOffsetOuter1"></feOffset>
            <feGaussianBlur stdDeviation="3.5" in="shadowOffsetOuter1" result="shadowBlurOuter1"></feGaussianBlur>
            <feColorMatrix values="0 0 0 0 0.0156862745   0 0 0 0 0.376470588   0 0 0 0 0.933333333  0 0 0 0.199671649 0" type="matrix" in="shadowBlurOuter1"></feColorMatrix>
        </filter>
    </defs>
    <g id="厕所" stroke="none" stroke-width="1" fill="none" fill-rule="evenodd">
        <g id="椭圆形-copy-6">
            <use fill="black" fill-opacity="1" filter="url(#filter-2)" xlink:href="#path-1"></use>
            <use fill="#FF8F1F" fill-rule="evenodd" xlink:href="#path-1"></use>
        </g>
        <g transform="translate(12.000000, 8.000000)" fill="#FFFFFF" fill-rule="nonzero" id="形状">
            <path d="M5.25508424,5.28086552 C6.69668748,5.28086552 7.86543884,4.09922352 7.86543884,2.64043276 C7.86543884,1.181642 6.69668748,0 5.25508424,0 C3.813481,0 2.64472964,1.181642 2.64472964,2.64043276 C2.64472964,4.09922352 3.813481,5.28086552 5.25508424,5.28086552 Z M15.6256041,5.28086552 C17.0672074,5.28086552 18.2359587,4.09922352 18.2359587,2.64043276 C18.2359587,1.181642 17.0693558,0 15.6256041,0 C14.1840009,0 13.0152495,1.181642 13.0152495,2.64043276 C13.0152495,4.09922352 14.1840009,5.28086552 15.6256041,5.28086552 Z M8.5185646,6.15957748 L1.99160388,6.15957748 C0.86367288,6.15957748 0.6875008,7.23809436 0.6875008,7.47871964 L0.6875008,15.3892757 C0.6875008,15.6320494 0.88300884,15.8297059 1.12148568,15.8297059 L2.20859632,15.8297059 C2.4492216,15.8297059 2.6425812,16.0273624 2.6425812,16.2701361 L2.6425812,21.5595954 C2.6425812,21.8023691 2.83808924,22.0000256 3.07656608,22.0000256 L7.42715708,22.0000256 C7.66778236,22.0000256 7.86114196,21.8023691 7.86114196,21.5595954 L7.86114196,16.2701361 C7.86114196,16.0273624 8.05665,15.8297059 8.29512684,15.8297059 L9.3886828,15.8297059 C9.62930808,15.8297059 9.82266768,15.6320494 9.82266768,15.3892757 L9.82266768,7.48086808 C9.82266768,7.23809436 9.7646598,6.15957748 8.5185646,6.15957748 Z M21.2867435,16.5687693 L18.1779508,7.96856396 C17.8256067,6.88789864 16.8287305,6.15957748 15.7050964,6.15957748 L15.5547056,6.15957748 C14.4332199,6.15957748 13.4341953,6.8857502 13.0818512,7.96856396 L9.96661316,16.5687693 C9.86348804,16.8566602 10.0718867,17.1595903 10.3748168,17.1595903 L13.232242,17.1595903 C13.4728672,17.1595903 13.6662268,17.3572468 13.6662268,17.6000205 L13.6662268,21.5595954 C13.6662268,21.8023691 13.8617349,22.0000256 14.1023602,22.0000256 L17.1466996,22.0000256 C17.3873249,22.0000256 17.582833,21.8023691 17.582833,21.5595954 L17.582833,17.6000205 C17.582833,17.3572468 17.778341,17.1595903 18.0168178,17.1595903 L20.874243,17.1595903 C21.1793215,17.1595903 21.3898686,16.8566602 21.2867435,16.5687693 Z"></path>
        </g>
    </g>
</svg>