<?xml version="1.0" encoding="UTF-8"?>
<svg width="18px" height="18px" viewBox="0 0 18 18" version="1.1" xmlns="http://www.w3.org/2000/svg" xmlns:xlink="http://www.w3.org/1999/xlink">
    <!-- Generator: Sketch 52.6 (67491) - http://www.bohemiancoding.com/sketch -->
    <title>首 页</title>
    <desc>Created with Sketch.</desc>
    <g id="app页面" stroke="none" stroke-width="1" fill="none" fill-rule="evenodd">
        <g id="新闻资讯-详情" transform="translate(-265.000000, -723.000000)">
            <g id="首-页" transform="translate(265.000000, 723.000000)">
                <path d="M14.2443095,16.7017694 L14.2443095,10.8596904 L14.2443095,10.8596867 C14.2446947,10.62704 14.3697655,10.4124548 14.5720031,10.2974585 C14.7751608,10.1814586 15.0244962,10.1814586 15.2276539,10.2974585 C15.4298904,10.4124567 15.5549607,10.6270435 15.5553439,10.8596885 L15.5553439,17.3509461 C15.5553439,17.7094172 15.2619436,18.0000261 14.8997828,18.0000261 L3.09978468,18.0000261 C2.73780497,18.0000261 2.44431322,17.7093258 2.44431322,17.3509461 L2.44431322,10.8596885 C2.44431322,10.5012174 2.73780321,10.2106981 3.09978468,10.2106981 C3.46185581,10.2106981 3.7553458,10.5012191 3.7553458,10.8595988 L3.7553458,16.7017834 L14.2443095,16.7017694 Z" id="形状" fill="#484F59" fill-rule="nonzero"></path>
                <path d="M8.9997468,1.56816393 L1.12006185,9.37062809 C0.953662718,9.53500925 0.712718199,9.59909653 0.486640397,9.5391083 C0.261068861,9.48001656 0.0841483427,9.30508694 0.0225105756,9.08019742 C-0.038233351,8.85581236 0.0264396696,8.61609919 0.191800764,8.45271736 L8.53570696,0.190707747 C8.65915809,0.0684452447 8.82590983,-9.95030177e-05 8.9996575,-2.82321765e-06 C9.17346772,-0.000147081949 9.34029206,0.0684009478 9.46378732,0.19070775 L17.8076935,8.45271736 C17.9732928,8.61611044 18.0381729,8.85596529 17.9775237,9.08055774 C17.9159958,9.30564062 17.7390762,9.48081035 17.5133939,9.54009792 C17.2871965,9.60024787 17.046056,9.5362655 16.8794328,9.37188773 L8.99974783,1.56942357 L8.99974783,1.56816357 L8.9997468,1.56816393 Z" id="路径" fill="#484F59"></path>
                <rect id="矩形" fill="#0360ED" x="8.25" y="9" width="1.5" height="6" rx="0.75"></rect>
            </g>
        </g>
    </g>
</svg>