<?xml version="1.0" encoding="UTF-8"?>
<svg width="46px" height="46px" viewBox="0 0 46 46" version="1.1" xmlns="http://www.w3.org/2000/svg" xmlns:xlink="http://www.w3.org/1999/xlink">
    <!-- Generator: Sketch 52.6 (67491) - http://www.bohemiancoding.com/sketch -->
    <title>景区景点</title>
    <desc>Created with Sketch.</desc>
    <defs>
        <path d="M23.5,45 C26.0013891,45 28.3868285,36.9199043 30.5631667,36.034562 C37.2763812,33.3036019 42,26.7967127 42,19.2042033 C42,9.15029942 33.7172679,1 23.5,1 C13.2827321,1 5,9.15029942 5,19.2042033 C5,26.7532281 9.66966662,33.2290325 16.3216838,35.9872679 C18.5289223,36.9024915 20.9544197,45 23.5,45 Z" id="path-1"></path>
        <filter x="-27.0%" y="-22.7%" width="159.5%" height="150.0%" filterUnits="objectBoundingBox" id="filter-2">
            <feOffset dx="1" dy="1" in="SourceAlpha" result="shadowOffsetOuter1"></feOffset>
            <feGaussianBlur stdDeviation="3.5" in="shadowOffsetOuter1" result="shadowBlurOuter1"></feGaussianBlur>
            <feColorMatrix values="0 0 0 0 0.0156862745   0 0 0 0 0.376470588   0 0 0 0 0.933333333  0 0 0 0.199671649 0" type="matrix" in="shadowBlurOuter1"></feColorMatrix>
        </filter>
    </defs>
    <g id="景区景点" stroke="none" stroke-width="1" fill="none" fill-rule="evenodd">
        <g id="椭圆形-copy">
            <use fill="black" fill-opacity="1" filter="url(#filter-2)" xlink:href="#path-1"></use>
            <use fill="#FA5053" fill-rule="evenodd" xlink:href="#path-1"></use>
        </g>
        <path d="M16.9994199,12.0572301 L28.9984573,12.0572301 L30.9965065,15.3099683 L33.9978772,15.2283276 L29.6924034,20.6123182 L16.2861378,20.6123182 L12,15.2261791 L15.1130896,15.3078198 L16.9994199,12.0572301 Z M16.8898494,9 L29.1123246,9 L29.1123246,10.8326193 L16.8898494,10.8326193 L16.8898494,9 Z M14.4449247,25.5000192 L31.5551009,25.5000192 L31.5551009,27.3326385 L14.4449247,27.3326385 L14.4449247,25.5000192 Z M15.6673871,20.0000128 L17.5000064,20.0000128 L17.5000064,25.5000192 L15.6673871,25.5000192 L15.6673871,20.0000128 Z M19.9449311,20.0000128 L21.7775504,20.0000128 L21.7775504,25.5000192 L19.9449311,25.5000192 L19.9449311,20.0000128 Z M24.2224752,20.0000128 L26.0550945,20.0000128 L26.0550945,25.5000192 L24.2224752,25.5000192 L24.2224752,20.0000128 Z M28.5000192,20.0000128 L30.3326385,20.0000128 L30.3326385,25.5000192 L28.5000192,25.5000192 L28.5000192,20.0000128 Z" id="形状" fill="#FFFFFF" fill-rule="nonzero"></path>
    </g>
</svg>