<?xml version="1.0" encoding="UTF-8"?>
<svg width="46px" height="46px" viewBox="0 0 46 46" version="1.1" xmlns="http://www.w3.org/2000/svg" xmlns:xlink="http://www.w3.org/1999/xlink">
    <!-- Generator: Sketch 52.6 (67491) - http://www.bohemiancoding.com/sketch -->
    <title>酒店民宿</title>
    <desc>Created with Sketch.</desc>
    <defs>
        <path d="M23,45 C25.5013891,45 27.8868285,36.9199043 30.0631667,36.034562 C36.7763812,33.3036019 41.5,26.7967127 41.5,19.2042033 C41.5,9.15029942 33.2172679,1 23,1 C12.7827321,1 4.5,9.15029942 4.5,19.2042033 C4.5,26.7532281 9.16966662,33.2290325 15.8216838,35.9872679 C18.0289223,36.9024915 20.4544197,45 23,45 Z" id="path-1"></path>
        <filter x="-27.0%" y="-22.7%" width="159.5%" height="150.0%" filterUnits="objectBoundingBox" id="filter-2">
            <feOffset dx="1" dy="1" in="SourceAlpha" result="shadowOffsetOuter1"></feOffset>
            <feGaussianBlur stdDeviation="3.5" in="shadowOffsetOuter1" result="shadowBlurOuter1"></feGaussianBlur>
            <feColorMatrix values="0 0 0 0 0.0156862745   0 0 0 0 0.376470588   0 0 0 0 0.933333333  0 0 0 0.199671649 0" type="matrix" in="shadowBlurOuter1"></feColorMatrix>
        </filter>
    </defs>
    <g id="酒店民宿" stroke="none" stroke-width="1" fill="none" fill-rule="evenodd">
        <g id="椭圆形-copy-2">
            <use fill="black" fill-opacity="1" filter="url(#filter-2)" xlink:href="#path-1"></use>
            <use fill="#FA5053" fill-rule="evenodd" xlink:href="#path-1"></use>
        </g>
        <path d="M30.7891777,28.1878251 L25.3923824,28.1878251 C25.2885268,28.1878251 25.189054,28.1698856 25.0925891,28.1448777 C24.9965323,28.1698856 24.8969306,28.1878251 24.7930965,28.1878251 L15.1994096,28.1878251 C14.5367877,28.1878251 14,27.6506291 14,26.9885229 L14,10.1994311 C14,9.53678773 14.5367877,9 15.1994096,9 L24.7930751,9 C25.4552887,9 25.9921194,9.53678773 25.9921194,10.1994311 L25.9921194,14.3967094 L30.7891348,14.3967094 C31.451241,14.3967094 31.9881362,14.9335186 31.9881362,15.5961405 L31.9881362,26.9885014 C31.9881362,27.6506506 31.4512625,28.1878036 30.7891563,28.1878036 L30.7891777,28.1878251 Z M18.7966716,12.5977132 L16.398368,12.5977132 L16.398368,14.9964249 L18.7966716,14.9964249 L18.7966716,12.5977132 Z M18.7966716,17.3943848 L16.398368,17.3943848 L16.398368,19.7930751 L18.7966716,19.7930751 L18.7966716,17.3943848 Z M18.7966716,22.1914001 L16.398368,22.1914001 L16.398368,24.5898326 L18.7966716,24.5898326 L18.7966716,22.1914001 Z M22.9941003,12.5977132 L20.5957967,12.5977132 L20.5957967,14.9964249 L22.9941003,14.9964249 L22.9941003,12.5977132 Z M22.9941003,17.3943848 L20.5957967,17.3943848 L20.5957967,19.7930751 L22.9941003,19.7930751 L22.9941003,17.3943848 Z M22.9941003,22.1914001 L20.5957967,22.1914001 L20.5957967,24.5898326 L22.9941003,24.5898326 L22.9941003,22.1914001 Z M29.5898541,17.3943848 L27.1914431,17.3943848 L27.1914431,19.7930751 L29.5897467,19.7930751 L29.5897467,17.3943848 L29.5898541,17.3943848 Z M29.5898541,22.1914001 L27.1914431,22.1914001 L27.1914431,24.5898326 L29.5897467,24.5898326 L29.5897467,22.1914001 L29.5898541,22.1914001 Z" id="形状" fill="#FFFFFF" fill-rule="nonzero"></path>
    </g>
</svg>