<?xml version="1.0" encoding="UTF-8"?>
<svg width="46px" height="46px" viewBox="0 0 46 46" version="1.1" xmlns="http://www.w3.org/2000/svg" xmlns:xlink="http://www.w3.org/1999/xlink">
    <!-- Generator: Sketch 52.6 (67491) - http://www.bohemiancoding.com/sketch -->
    <title>旅行社团</title>
    <desc>Created with Sketch.</desc>
    <defs>
        <path d="M23,45 C25.5013891,45 27.8868285,36.9199043 30.0631667,36.034562 C36.7763812,33.3036019 41.5,26.7967127 41.5,19.2042033 C41.5,9.15029942 33.2172679,1 23,1 C12.7827321,1 4.5,9.15029942 4.5,19.2042033 C4.5,26.7532281 9.16966662,33.2290325 15.8216838,35.9872679 C18.0289223,36.9024915 20.4544197,45 23,45 Z" id="path-1"></path>
        <filter x="-27.0%" y="-22.7%" width="159.5%" height="150.0%" filterUnits="objectBoundingBox" id="filter-2">
            <feOffset dx="1" dy="1" in="SourceAlpha" result="shadowOffsetOuter1"></feOffset>
            <feGaussianBlur stdDeviation="3.5" in="shadowOffsetOuter1" result="shadowBlurOuter1"></feGaussianBlur>
            <feColorMatrix values="0 0 0 0 0.0156862745   0 0 0 0 0.376470588   0 0 0 0 0.933333333  0 0 0 0.199671649 0" type="matrix" in="shadowBlurOuter1"></feColorMatrix>
        </filter>
    </defs>
    <g id="旅行社团" stroke="none" stroke-width="1" fill="none" fill-rule="evenodd">
        <g id="椭圆形-copy-5">
            <use fill="black" fill-opacity="1" filter="url(#filter-2)" xlink:href="#path-1"></use>
            <use fill="#FA5053" fill-rule="evenodd" xlink:href="#path-1"></use>
        </g>
        <path d="M33.9992048,13.062025 C33.985017,12.6391214 33.8431387,12.0558083 33.2259694,11.6256118 C33.2259694,11.6256118 30.4806253,9.67879863 27.5011736,12.6537046 L23.1596991,16.5619064 L14.3206784,12.6318132 C13.6751335,12.3401553 12.9160837,12.6901447 12.6961719,13.3901215 C12.6961719,13.3974129 12.689078,13.4047044 12.689078,13.4047044 C12.5117302,14.0026007 12.6819841,14.6588295 13.1147136,15.0525669 L19.3360805,20.4190579 L17.172436,22.5846132 C17.023464,22.701276 16.8390219,22.7377331 16.6758624,22.6794018 L13.4836017,21.5856862 C12.9302757,21.3961089 12.3627641,21.6950578 12.1144761,22.3148282 C11.8732831,22.9200174 12.0222551,23.6127028 12.4762664,24.013733 L14.5902513,25.8584642 C15.4840843,26.6386485 16.548172,27.0542593 17.6619044,27.0542593 C18.7330849,27.0542593 19.7617036,26.6678122 20.6342482,25.9459605 L31.4879345,16.9410392 C33.8714883,14.9504792 34.0133619,13.4703063 33.9991713,13.0620089 M29.7357326,29.9999938 C29.8847047,29.9999938 30.0265824,29.9489538 30.1471801,29.8541651 C30.416749,29.6354222 30.5018751,29.2271025 30.3670914,28.8552386 L27.9551614,22.4679528 C27.827471,22.1325481 27.5720901,21.8554734 27.274145,21.7242276 C27.004576,21.6002732 26.7208189,21.6075648 26.4867215,21.7461019 C26.451252,21.7679762 26.4228763,21.7898506 26.3945006,21.8117248 L25.0821273,22.9856465 C24.86931,23.1314752 24.7274322,23.3720935 24.6848679,23.6564585 C24.6281165,24.0137392 24.7416193,24.4001837 24.9899059,24.713715 L29.1398447,29.6864687 C29.2888168,29.8833374 29.5087279,30 29.7357326,30" id="形状" fill="#FFFFFF" fill-rule="nonzero"></path>
    </g>
</svg>