<?xml version="1.0" encoding="UTF-8"?>
<svg width="46px" height="46px" viewBox="0 0 46 46" version="1.1" xmlns="http://www.w3.org/2000/svg" xmlns:xlink="http://www.w3.org/1999/xlink">
    <!-- Generator: Sketch 52.6 (67491) - http://www.bohemiancoding.com/sketch -->
    <title>美食餐饮</title>
    <desc>Created with Sketch.</desc>
    <defs>
        <path d="M23,45 C25.5013891,45 27.8868285,36.9199043 30.0631667,36.034562 C36.7763812,33.3036019 41.5,26.7967127 41.5,19.2042033 C41.5,9.15029942 33.2172679,1 23,1 C12.7827321,1 4.5,9.15029942 4.5,19.2042033 C4.5,26.7532281 9.16966662,33.2290325 15.8216838,35.9872679 C18.0289223,36.9024915 20.4544197,45 23,45 Z" id="path-1"></path>
        <filter x="-27.0%" y="-22.7%" width="159.5%" height="150.0%" filterUnits="objectBoundingBox" id="filter-2">
            <feOffset dx="1" dy="1" in="SourceAlpha" result="shadowOffsetOuter1"></feOffset>
            <feGaussianBlur stdDeviation="3.5" in="shadowOffsetOuter1" result="shadowBlurOuter1"></feGaussianBlur>
            <feColorMatrix values="0 0 0 0 0.0156862745   0 0 0 0 0.376470588   0 0 0 0 0.933333333  0 0 0 0.199671649 0" type="matrix" in="shadowBlurOuter1"></feColorMatrix>
        </filter>
    </defs>
    <g id="美食餐饮" stroke="none" stroke-width="1" fill="none" fill-rule="evenodd">
        <g id="椭圆形-copy-4">
            <use fill="black" fill-opacity="1" filter="url(#filter-2)" xlink:href="#path-1"></use>
            <use fill="#FA5053" fill-rule="evenodd" xlink:href="#path-1"></use>
        </g>
        <path d="M16.9488761,20.4623292 C15.5112475,20.3314248 14.2839512,19.8285824 13.5571339,18.5170887 C13.028897,17.5633102 12.8345061,16.5294594 13.156944,15.4576027 C13.5086436,14.2877771 14.2255566,13.4069812 15.3667005,12.930092 C16.4942018,12.4587887 17.6206718,12.5365192 18.7186321,13.041639 C19.6850864,11.0573183 21.2847074,10.0292468 23.4690048,10.0005221 C25.6863238,9.97175453 27.2087299,11.1335879 28.2594459,13.0204553 C28.3536121,12.9827502 28.4515165,12.9384494 28.5532236,12.9028283 C29.4195176,12.5968045 30.2969405,12.4950758 31.1932912,12.7582812 C31.8495536,12.9507814 32.3890699,13.3246315 32.8409513,13.832093 C33.2429674,14.2840603 33.5593252,14.7952601 33.7730305,15.3578077 C33.8728255,15.6201322 33.9124213,15.9161657 33.9227768,16.1990938 C33.95481,17.018208 33.7975227,17.8029687 33.399159,18.5284325 C32.9275764,19.3880663 32.2063451,19.9364556 31.2742659,20.2165907 C30.8957107,20.3305439 30.509679,20.389712 30.1170516,20.4142901 C30.0916141,20.4156866 30.0672078,20.4198761 30.0304695,20.4241729 L30.0304695,23.033174 L16.9488547,23.033174 L16.9488547,20.4623292 L16.9488761,20.4623292 Z M30.0087488,24.3931364 L30.0087488,27.0722412 C30.0087488,27.6749646 29.4438594,28.2529809 28.8422962,28.2679985 C28.8017552,28.2690297 28.7621594,28.2690297 28.7226281,28.2690297 C25.2295225,28.2690297 21.7365028,28.2633793 18.2443855,28.2737348 C17.5970605,28.275561 17.1084408,27.8735449 16.9732824,27.2332668 L16.9732824,27.2332666 C16.9565127,27.151491 16.948162,27.0682129 16.9483605,26.9847351 C16.9464269,26.1673611 16.9473937,25.3502019 16.9473937,24.5320975 L16.9473937,24.3931364 L30.0087488,24.3931364 Z" id="形状" fill="#FFFFFF" fill-rule="nonzero"></path>
    </g>
</svg>