<?xml version="1.0" encoding="UTF-8"?>
<svg width="46px" height="46px" viewBox="0 0 46 46" version="1.1" xmlns="http://www.w3.org/2000/svg" xmlns:xlink="http://www.w3.org/1999/xlink">
    <!-- Generator: Sketch 52.6 (67491) - http://www.bohemiancoding.com/sketch -->
    <title>农家小院</title>
    <desc>Created with Sketch.</desc>
    <defs>
        <path d="M23,45 C25.5013891,45 27.8868285,36.9199043 30.0631667,36.034562 C36.7763812,33.3036019 41.5,26.7967127 41.5,19.2042033 C41.5,9.15029942 33.2172679,1 23,1 C12.7827321,1 4.5,9.15029942 4.5,19.2042033 C4.5,26.7532281 9.16966662,33.2290325 15.8216838,35.9872679 C18.0289223,36.9024915 20.4544197,45 23,45 Z" id="path-1"></path>
        <filter x="-27.0%" y="-22.7%" width="159.5%" height="150.0%" filterUnits="objectBoundingBox" id="filter-2">
            <feOffset dx="1" dy="1" in="SourceAlpha" result="shadowOffsetOuter1"></feOffset>
            <feGaussianBlur stdDeviation="3.5" in="shadowOffsetOuter1" result="shadowBlurOuter1"></feGaussianBlur>
            <feColorMatrix values="0 0 0 0 0.0156862745   0 0 0 0 0.376470588   0 0 0 0 0.933333333  0 0 0 0.199671649 0" type="matrix" in="shadowBlurOuter1"></feColorMatrix>
        </filter>
    </defs>
    <g id="农家小院" stroke="none" stroke-width="1" fill="none" fill-rule="evenodd">
        <g id="椭圆形-copy-3">
            <use fill="black" fill-opacity="1" filter="url(#filter-2)" xlink:href="#path-1"></use>
            <use fill="#FA5053" fill-rule="evenodd" xlink:href="#path-1"></use>
        </g>
        <path d="M24.5379023,20.7963609 C24.1243589,20.7963609 23.7108135,20.8377152 23.2972701,21.0031326 C22.9250806,21.1271958 22.5942451,21.2926142 22.2634096,21.5407399 C21.932574,21.7888656 21.6017385,22.0783471 21.3536128,22.4091826 C21.3122583,22.450537 21.270904,22.5332459 21.270904,22.5746004 C21.270904,22.6986636 21.3949672,22.8227261 21.5190315,22.8227261 C21.6017404,22.8227261 21.6430948,22.7813717 21.6844493,22.7400172 L21.9739308,22.4505357 L22.2220565,22.20241 C22.5115381,21.9129284 22.8837276,21.6648027 23.2559171,21.499385 C23.6281066,21.3339672 24.0830059,21.2926132 24.4965493,21.2926132 C24.6206125,21.2926132 24.744675,21.16855 24.744675,21.0444875 C24.744675,20.9617786 24.7033207,20.9204243 24.6619661,20.8790698 C24.6619661,20.7963609 24.6206118,20.7963609 24.5379029,20.7963609 L24.5379023,20.7963609 Z M33.0982719,16.4955029 L30.4929379,14.3864204 L30.4929379,11.2021233 C30.4515836,10.4990983 29.8726208,10.002845 29.1695958,10.002845 C28.4665708,10.002845 27.8876077,10.5404523 27.8462538,11.2021233 L27.8462538,12.1946299 L24.4551869,9.4652378 C23.7521619,8.84492073 22.6769455,8.84492073 22.0152763,9.4652378 L18.1693045,12.5668231 L13.4962533,16.3300833 C13.1654178,16.6195648 13,16.9917543 13,17.4052978 C13,17.8188412 13.2067717,18.2323866 13.4962533,18.4805123 L15.8534521,19.348955 L15.8534521,24.8491045 C15.8534521,26.3378643 16.8459587,27.2476686 18.3760743,27.2476686 L28.1357165,27.2476686 C29.5004125,27.2476686 30.6169735,26.5446435 30.6583387,24.8491045 L30.6583387,19.5970901 L33.1395957,18.7286474 C33.4704312,18.4391658 33.635849,18.0669763 33.635849,17.6534329 C33.635849,17.1985336 33.4290773,16.7849901 33.0982417,16.4955086 L33.0982719,16.4955029 Z M26.8123895,20.2587631 C26.8123895,20.5068887 26.7710351,20.7550163 26.7296806,21.003142 C26.6056174,21.5407493 26.3574911,22.0783565 26.0266556,22.4919019 C25.6131121,22.9468012 25.1582128,23.2776367 24.6206056,23.5257624 C24.0829983,23.8152439 23.5040352,23.9393058 22.925074,23.9393058 C22.5528845,23.9393058 22.1393392,23.8979515 21.8085037,23.7738881 C21.7671491,23.7738881 21.6430859,23.6911792 21.4776682,23.6084703 C21.3536049,23.5257614 21.2295425,23.4844071 21.1054787,23.4430526 C21.0641241,23.4430526 21.0227698,23.4844069 20.9400609,23.5671158 C20.857352,23.6498247 20.8159977,23.7738875 20.7746431,23.8565973 C20.7332886,23.9393062 20.6505799,24.0633691 20.5678714,24.1460789 C20.5265169,24.2287878 20.4438082,24.2701421 20.3197457,24.2701421 C20.2370368,24.2701421 20.1956825,24.2701421 20.112974,24.2287878 C20.0716195,24.1874334 20.0302651,24.1874334 19.9889108,24.1460789 C19.9475562,24.1047245 19.9062019,24.0220157 19.8648475,23.9806611 L19.823493,23.9806611 L19.823493,23.8979522 L19.823493,23.8565979 L19.823493,23.8152436 C19.823493,23.6911803 19.8648475,23.6084718 19.9475562,23.525762 L20.1956819,23.2776363 C20.2783908,23.1949274 20.3610997,23.1535731 20.4438076,23.0708646 C20.5265165,22.9881557 20.5678709,22.9468014 20.5678709,22.8640929 C20.5678709,22.8227385 20.5265163,22.781384 20.5265163,22.6986751 C20.4851618,22.6573207 20.4851618,22.5746119 20.4438074,22.5332573 C20.4024529,22.4091941 20.4024529,22.2437758 20.4024529,22.1197139 C20.4024529,21.8302323 20.4438074,21.5407527 20.5678707,21.2512711 C20.6919339,21.0031454 20.8159964,20.7550178 21.02277,20.5482461 C21.2295417,20.3414744 21.4363134,20.1760566 21.684441,20.0106389 C21.9325667,19.8452211 22.1806943,19.7211573 22.4701758,19.6384494 C22.6355936,19.597095 22.8423653,19.5557405 23.0491371,19.5557405 C23.2972628,19.5557405 23.5040364,19.5143861 23.7521621,19.5143861 C24.0002878,19.5143861 24.2070614,19.5143861 24.4551871,19.4730318 C24.6619588,19.4730318 24.8687305,19.4316775 25.0755041,19.3903229 C25.2409219,19.3489686 25.4063397,19.2662597 25.5304034,19.1835512 L25.6544667,19.059488 L25.7785299,18.9354247 C25.8612388,18.8527159 25.9025931,18.8527159 25.9025931,18.8527159 C25.9025931,18.8940702 25.9439475,18.8527159 26.0266563,18.770007 C26.1093652,18.6872981 26.1920741,18.6872981 26.1920741,18.770007 C26.3161373,18.770007 26.3988458,18.8527159 26.4815557,18.9354247 C26.5642645,19.059488 26.6469734,19.2249063 26.6469734,19.3903241 C26.6883278,19.5557418 26.7296823,19.7211596 26.7296823,19.8865773 C26.8123912,20.0106406 26.8123912,20.134703 26.8123912,20.2587668 L26.8123895,20.2587631 Z" id="形状" fill="#FFFFFF" fill-rule="nonzero"></path>
    </g>
</svg>