<?xml version="1.0" encoding="UTF-8"?>
<svg width="46px" height="46px" viewBox="0 0 46 46" version="1.1" xmlns="http://www.w3.org/2000/svg" xmlns:xlink="http://www.w3.org/1999/xlink">
    <!-- Generator: Sketch 52.6 (67491) - http://www.bohemiancoding.com/sketch -->
    <title>特产商家</title>
    <desc>Created with Sketch.</desc>
    <defs>
        <path d="M23.5,45 C26.0013891,45 28.3868285,36.9199043 30.5631667,36.034562 C37.2763812,33.3036019 42,26.7967127 42,19.2042033 C42,9.15029942 33.7172679,1 23.5,1 C13.2827321,1 5,9.15029942 5,19.2042033 C5,26.7532281 9.66966662,33.2290325 16.3216838,35.9872679 C18.5289223,36.9024915 20.9544197,45 23.5,45 Z" id="path-1"></path>
        <filter x="-27.0%" y="-22.7%" width="159.5%" height="150.0%" filterUnits="objectBoundingBox" id="filter-2">
            <feOffset dx="1" dy="1" in="SourceAlpha" result="shadowOffsetOuter1"></feOffset>
            <feGaussianBlur stdDeviation="3.5" in="shadowOffsetOuter1" result="shadowBlurOuter1"></feGaussianBlur>
            <feColorMatrix values="0 0 0 0 0.0156862745   0 0 0 0 0.376470588   0 0 0 0 0.933333333  0 0 0 0.199671649 0" type="matrix" in="shadowBlurOuter1"></feColorMatrix>
        </filter>
    </defs>
    <g id="特产商家" stroke="none" stroke-width="1" fill="none" fill-rule="evenodd">
        <g id="椭圆形-copy-3">
            <use fill="black" fill-opacity="1" filter="url(#filter-2)" xlink:href="#path-1"></use>
            <use fill="#0460EE" fill-rule="evenodd" xlink:href="#path-1"></use>
        </g>
        <path d="M26.8116894,21.7115802 C26.6470033,21.5695227 26.3610027,21.5582084 26.195688,21.7008945 C25.304578,22.4710847 24.1659086,22.8946014 22.988081,22.8939256 C21.8079591,22.8940338 20.667842,22.4661288 19.7792169,21.6895802 C19.607106,21.5470418 19.3579552,21.5470418 19.1858441,21.6895802 C17.9224128,22.784554 16.1536089,23.2000406 14.3841765,22.6198679 C14.3074906,22.5984964 14.1974904,22.5651821 14.1974904,22.543182 L14.1974904,28.0268511 C14.1974904,29.2965682 15.1755497,30.0847985 16.4502953,30.0847985 L29.5472382,30.0847985 C30.8219838,30.0847985 31.8880433,29.2965682 31.8880433,28.0268511 L31.8880433,22.5544963 C30.0199249,23.2660407 28.1298065,22.8606113 26.8116893,21.7122088 L26.8116894,21.7115802 Z M19.6038451,28.2455945 C19.6038451,28.4536521 19.2078442,28.6070238 18.7577861,28.6070238 C18.3070994,28.6070238 17.9117271,28.4429663 17.9117271,28.2455945 L17.9117271,23.933585 C17.9117271,23.7255275 18.3070994,23.5721557 18.7577861,23.5721557 C19.2078442,23.5721557 19.6038451,23.7362132 19.6038451,23.933585 L19.6038451,28.2455945 Z M33.8548476,17.0821415 L33.8108475,16.9501412 L30.909984,11.0516141 C30.5929437,10.4120845 29.9429621,10.0054196 29.2291804,10.0000119 L16.7029816,10.0000119 C15.9869253,9.99746182 15.3329916,10.4062015 15.0215494,11.0509856 L12.1646861,16.9721414 C12.1540003,17.0048271 12.1320003,17.059513 12.120686,17.0921988 C12.0326858,17.4209423 12,17.6943715 12,18.0118008 C12,19.7956904 13.1534311,21.3608367 14.8788634,21.8316377 C16.5929814,22.2911244 18.1970992,21.6342658 19.1198441,20.4299203 C19.2958445,20.2004913 19.658531,20.2004913 19.8452171,20.4299203 L19.845217,20.4299201 C20.5961925,21.4047324 21.7575436,21.9751897 22.988081,21.9736949 C24.2182883,21.9751442 25.3793487,21.4049505 26.1303164,20.4305487 C26.2872502,20.2302422 26.5768506,20.1950814 26.7771571,20.352016 C26.8064054,20.3749312 26.8327746,20.4013002 26.8556898,20.4305487 L26.8556899,20.4305489 C27.7724948,21.6273966 29.2867738,22.2036133 30.7672984,21.9190092 C32.5587309,21.5795799 34.0528485,19.6863187 33.975534,17.8691147 L33.975534,17.8691154 C33.9630423,17.6030759 33.9225911,17.3390891 33.8548485,17.0815157 L33.8548476,17.0821415 Z" id="形状" fill="#FFFFFF" fill-rule="nonzero"></path>
    </g>
</svg>