<?xml version="1.0" encoding="UTF-8"?>
<svg width="46px" height="46px" viewBox="0 0 46 46" version="1.1" xmlns="http://www.w3.org/2000/svg" xmlns:xlink="http://www.w3.org/1999/xlink">
    <!-- Generator: Sketch 52.6 (67491) - http://www.bohemiancoding.com/sketch -->
    <title>停车场</title>
    <desc>Created with Sketch.</desc>
    <defs>
        <path d="M23,45 C25.5013891,45 27.8868285,36.9199043 30.0631667,36.034562 C36.7763812,33.3036019 41.5,26.7967127 41.5,19.2042033 C41.5,9.15029942 33.2172679,1 23,1 C12.7827321,1 4.5,9.15029942 4.5,19.2042033 C4.5,26.7532281 9.16966662,33.2290325 15.8216838,35.9872679 C18.0289223,36.9024915 20.4544197,45 23,45 Z" id="path-1"></path>
        <filter x="-27.0%" y="-22.7%" width="159.5%" height="150.0%" filterUnits="objectBoundingBox" id="filter-2">
            <feOffset dx="1" dy="1" in="SourceAlpha" result="shadowOffsetOuter1"></feOffset>
            <feGaussianBlur stdDeviation="3.5" in="shadowOffsetOuter1" result="shadowBlurOuter1"></feGaussianBlur>
            <feColorMatrix values="0 0 0 0 0.0156862745   0 0 0 0 0.376470588   0 0 0 0 0.933333333  0 0 0 0.199671649 0" type="matrix" in="shadowBlurOuter1"></feColorMatrix>
        </filter>
    </defs>
    <g id="停车场" stroke="none" stroke-width="1" fill="none" fill-rule="evenodd">
        <g id="椭圆形-copy-2">
            <use fill="black" fill-opacity="1" filter="url(#filter-2)" xlink:href="#path-1"></use>
            <use fill="#FF8F1F" fill-rule="evenodd" xlink:href="#path-1"></use>
        </g>
        <g transform="translate(13.000000, 9.000000)" fill="#FFFFFF" fill-rule="nonzero" id="形状">
            <path d="M7.72911172,0.45664232 L0.2675796,0.45664232 L0.2675796,19.5455317 L2.97031712,19.5455317 L2.97031712,10.8916154 L7.72911172,10.8916154 C10.6488417,10.8916154 13.0293132,8.56700332 13.0293132,5.64727336 C13.0271648,2.7812544 10.6488417,0.45664232 7.72911172,0.45664232 Z M7.29727528,8.18887788 L2.97031712,8.18887788 L2.97031712,3.15937984 L7.29512684,3.15937984 C8.5927846,3.21309084 9.72930936,4.4033266 9.72930936,5.64727336 C9.72930936,6.89122012 8.59493304,8.13516688 7.29727528,8.18887788 Z M19.571313,14.8941591 C19.463891,14.7308777 19.2468986,14.5160337 19.2468986,14.5160337 L18.2736552,11.9207182 C18.0566628,11.4330223 17.4615449,11.1644673 17.2467009,11.1644673 L12.1634919,11.1644673 C11.8927884,11.1644673 11.2976706,11.4351707 11.1365376,11.9207182 L10.1632942,14.5160337 C10.1632942,14.5160337 9.9463018,14.7330261 9.8388798,14.8941591 C9.7314578,15.0574406 9.67559836,15.2185736 9.67559836,16.3550983 C9.67559836,17.4916231 9.8925908,17.8697485 10.1632942,17.9771705 L10.3802867,18.0845925 L10.3802867,19.1115468 C10.3802867,19.4359613 10.4339977,19.5433833 10.7584121,19.5433833 L11.460952,19.5433833 C11.7853664,19.5433833 12.0023589,19.5433833 12.0023589,19.2189688 L12.0023589,18.1920145 L17.3562714,18.1920145 L17.3562714,19.2189688 C17.3562714,19.5433833 17.5732638,19.5433833 17.8976782,19.5433833 L18.6539291,19.5433833 C18.9783436,19.5433833 19.0320546,19.4359613 19.0320546,19.1115468 L19.0320546,18.1383035 L19.249047,18.0308815 C19.5197504,17.8676001 19.7367429,17.4894746 19.7367429,16.4088093 C19.732446,15.2185736 19.625024,15.0552921 19.571313,14.8941591 Z M11.460952,14.2453302 C11.514663,14.0820488 11.7853664,12.9476725 11.8927884,12.569547 C11.9464994,12.4062656 12.2709139,12.0281402 12.6490393,12.0281402 L16.812716,12.0281402 C17.1908415,12.0281402 17.5152559,12.4062656 17.5689669,12.569547 C17.6763889,12.9476725 17.9470924,14.0841972 18.0008034,14.2453302 C18.0545144,14.4086117 17.8933814,14.4086117 17.8933814,14.4086117 L11.568374,14.4086117 C11.568374,14.4064632 11.4050926,14.4064632 11.460952,14.2453302 Z M11.568374,17.0017788 C11.1365376,17.0017788 10.8121231,16.6773643 10.8121231,16.2455279 C10.8121231,15.8136914 11.1365376,15.489277 11.568374,15.489277 C12.0002104,15.489277 12.3246249,15.8136914 12.3246249,16.2455279 C12.3246249,16.6773643 11.9464994,17.0017788 11.568374,17.0017788 Z M17.8955298,17.0017788 C17.4636934,17.0017788 17.1392789,16.6773643 17.1392789,16.2455279 C17.1392789,15.8136914 17.4636934,15.489277 17.8955298,15.489277 C18.3273662,15.489277 18.6517807,15.8136914 18.6517807,16.2455279 C18.6517807,16.6773643 18.2736552,17.0017788 17.8955298,17.0017788 Z"></path>
        </g>
    </g>
</svg>