<?xml version="1.0" encoding="UTF-8"?>
<svg width="46px" height="46px" viewBox="0 0 46 46" version="1.1" xmlns="http://www.w3.org/2000/svg" xmlns:xlink="http://www.w3.org/1999/xlink">
    <!-- Generator: Sketch 52.6 (67491) - http://www.bohemiancoding.com/sketch -->
    <title>图书馆</title>
    <desc>Created with Sketch.</desc>
    <defs>
        <path d="M23.5,45 C26.0013891,45 28.3868285,36.9199043 30.5631667,36.034562 C37.2763812,33.3036019 42,26.7967127 42,19.2042033 C42,9.15029942 33.7172679,1 23.5,1 C13.2827321,1 5,9.15029942 5,19.2042033 C5,26.7532281 9.66966662,33.2290325 16.3216838,35.9872679 C18.5289223,36.9024915 20.9544197,45 23.5,45 Z" id="path-1"></path>
        <filter x="-27.0%" y="-22.7%" width="159.5%" height="150.0%" filterUnits="objectBoundingBox" id="filter-2">
            <feOffset dx="1" dy="1" in="SourceAlpha" result="shadowOffsetOuter1"></feOffset>
            <feGaussianBlur stdDeviation="3.5" in="shadowOffsetOuter1" result="shadowBlurOuter1"></feGaussianBlur>
            <feColorMatrix values="0 0 0 0 0.0156862745   0 0 0 0 0.376470588   0 0 0 0 0.933333333  0 0 0 0.199671649 0" type="matrix" in="shadowBlurOuter1"></feColorMatrix>
        </filter>
    </defs>
    <g id="图书馆" stroke="none" stroke-width="1" fill="none" fill-rule="evenodd">
        <g id="椭圆形-copy">
            <use fill="black" fill-opacity="1" filter="url(#filter-2)" xlink:href="#path-1"></use>
            <use fill="#0460EE" fill-rule="evenodd" xlink:href="#path-1"></use>
        </g>
        <g id="图书馆-copy" transform="translate(10.000000, 7.000000)">
            <g id="分组">
                <rect id="矩形" fill="#000000" opacity="0" x="0" y="0" width="25" height="25"></rect>
                <path d="M12.2583638,3.76624648 L11.9253896,3.63501047 L8.66927224,2.7657748 C8.04994214,2.60383459 7.65423542,2.82863218 7.49074629,3.44091707 L3.61464927,19.5511443 C3.45131001,20.1788188 3.67608262,20.5738759 4.29606228,20.7442854 L7.55153008,21.612097 C8.17985408,21.7823566 8.57636025,21.5499891 8.73895,20.9215652 L12.616471,4.82043176 C12.7484566,4.32474285 12.6310861,3.97565452 12.2596879,3.76622151 L12.2589385,3.76622151 L12.2583638,3.76622151 L12.2583638,3.76624648 Z M10.6763365,9.37084656 C10.6379375,9.51742217 10.56049,9.6424624 10.4452931,9.74299424 C10.337766,9.82813652 10.2288398,9.85192039 10.1290075,9.82878606 L10.1025505,9.82878606 L7.14945269,9.03085205 C7.03415586,8.99947332 6.95603381,8.92332495 6.90996506,8.79068989 C6.88275852,8.72508437 6.86671938,8.6545572 6.86387131,8.58268093 C6.85904958,8.5114792 6.86671938,8.43742942 6.88625613,8.36347954 C6.92532964,8.20988367 7.00212756,8.09261318 7.11872351,8.00669644 C7.21848088,7.90683914 7.33585129,7.87546042 7.45237229,7.90683914 L10.4054701,8.70554761 L10.4208347,8.70554761 C10.4404714,8.71256785 10.4550615,8.72923154 10.4724996,8.73977439 C10.5465494,8.78299509 10.6093069,8.84662695 10.6539766,8.95335459 C10.6811831,9.0155624 10.6972972,9.08116794 10.7007948,9.15169512 C10.7043175,9.22214734 10.6966227,9.29477312 10.677011,9.37222061 L10.6763365,9.37084656 Z M11.1748734,7.42234265 C11.1707013,7.46426423 11.1707013,7.50473679 11.1574103,7.54940649 C11.1302037,7.65550955 11.0735921,7.74347493 11.005913,7.81952336 C10.979356,7.84882849 10.9570711,7.8817062 10.9249429,7.90608967 C10.8934642,7.93472026 10.861436,7.94801125 10.8292578,7.96402539 C10.756632,8.00242437 10.6854553,8.02193613 10.6149781,8.00659653 L10.598864,8.00659653 L7.64641572,7.21633232 C7.5299197,7.17858291 7.44467749,7.09279109 7.3902394,6.96013103 C7.35184043,6.86589492 7.34899236,6.76673716 7.36018479,6.66413171 C7.36433198,6.62363418 7.36433198,6.58381118 7.37487483,6.54126501 C7.38881538,6.49726985 7.40975117,6.46159404 7.42853845,6.42254551 C7.47460723,6.32481177 7.5297948,6.23822048 7.60801677,6.17678713 C7.71761746,6.08397505 7.83281436,6.0532459 7.94868579,6.09229441 L10.9017836,6.88255862 L10.9164736,6.88255862 C10.9834032,6.90769158 11.0337441,6.95935654 11.0769898,7.02078989 C11.1006987,7.05294309 11.1237331,7.08364727 11.1419458,7.12349526 C11.1691523,7.18910078 11.1845169,7.25680488 11.187265,7.32800662 C11.1893636,7.35948528 11.1782711,7.39153855 11.1747735,7.42366675 L11.1748734,7.42234265 Z M16.6796162,4.34495413 C16.6168588,4.4922043 16.5861546,4.66191423 16.5861546,4.8566572 L16.5861546,21.5645043 C16.5861546,21.7662425 16.6168588,21.936627 16.6796162,22.0769568 C16.7487443,22.2145385 16.8346361,22.2850657 16.9344684,22.2850657 C17.0364243,22.2850657 17.1139717,22.2145386 17.1829999,22.0769568 C17.2528775,21.936652 17.2905021,21.7663424 17.2905021,21.5645043 L17.2905021,4.85665718 C17.2905021,4.66191421 17.2521031,4.49220427 17.1829999,4.3449541 C17.1132222,4.20462424 17.0364243,4.13477161 16.9344684,4.13477161 C16.8346361,4.13477163 16.7487444,4.20389976 16.6796162,4.34495413 Z M16.2524059,4.85665718 C16.2524059,4.66326331 16.2223512,4.49297876 16.1595938,4.3449541 C16.0827958,4.20529878 15.9969041,4.13619563 15.8957227,4.13619563 C15.7951159,4.13619563 15.718318,4.20529878 15.6478907,4.3449541 C15.5787626,4.49295376 15.5403636,4.66326328 15.5403636,4.85665718 L15.5403636,21.5645042 C15.5403636,21.7655929 15.5787626,21.936627 15.6478907,22.0763073 C15.7190925,22.2151881 15.7958654,22.2850657 15.8957227,22.2850657 C15.9968791,22.2850657 16.0820963,22.2151881 16.1595938,22.0763073 C16.2224262,21.9366519 16.2524059,21.7655929 16.2524059,21.5645042 L16.2524059,4.85665718 Z M20.825955,4.34495413 C20.7630976,4.4922043 20.7337925,4.66191423 20.7337925,4.8566572 L20.7337925,21.5645043 C20.7337925,21.7662425 20.7637472,21.936627 20.825955,22.0769568 C20.8957327,22.2145385 20.98085,22.2850657 21.0807073,22.2850657 C21.1833876,22.2850657 21.2608601,22.2145386 21.3299633,22.0769568 C21.3990914,21.936652 21.4368408,21.7663424 21.4368408,21.5645043 L21.4368408,4.85665718 C21.4368408,4.66191421 21.3984169,4.49220427 21.3299633,4.3449541 C21.2608601,4.20462424 21.1833877,4.13477161 21.0807073,4.13477161 C20.98085,4.13477163 20.8957327,4.20389976 20.825955,4.34495413 Z M20.3993692,4.85665718 C20.3993692,4.66326331 20.3693146,4.49297876 20.3058077,4.3449541 C20.2290097,4.20529878 20.143118,4.13619563 20.0426111,4.13619563 C19.9420293,4.13619563 19.8645568,4.20529878 19.7940047,4.3449541 C19.7249765,4.49295376 19.6865775,4.66326328 19.6865775,4.85665718 L19.6865775,21.5645042 C19.6865775,21.7655929 19.725651,21.936627 19.7940047,22.0763073 C19.8652813,22.2151881 19.9420793,22.2850657 20.0426111,22.2850657 C20.143118,22.2850657 20.2290097,22.2151881 20.3058077,22.0763073 C20.3693396,21.9366519 20.3993692,21.7655929 20.3993692,21.5645042 L20.3993692,4.85665718 Z M14.7178713,4.22066338 C14.5705462,4.08178254 14.4002366,4.01123037 14.2054187,4.01123037 C14.0043301,4.01123037 13.8340455,4.08178254 13.68737,4.22066338 C13.5470651,4.36096826 13.4786115,4.53135273 13.4786115,4.73246638 L13.4786115,21.5569094 C13.4786115,21.7578981 13.5477146,21.9282826 13.68737,22.0686125 C13.8339456,22.2145385 14.0043301,22.2850657 14.2054187,22.2850657 C14.4009362,22.2850657 14.5705462,22.2145385 14.7178713,22.0686125 C14.8581762,21.9283076 14.9279788,21.7578981 14.9279788,21.5569094 L14.9279788,4.73246638 C14.9279788,4.53135273 14.8582011,4.3603187 14.7178713,4.22066338 Z M17.9893532,4.22066338 C17.8504724,4.36096826 17.7799202,4.53135273 17.7799202,4.73246638 L17.7799202,21.5569094 C17.7799202,21.7578981 17.8504724,21.9282826 17.9893532,22.0686125 C18.1359288,22.2145385 18.3063133,22.2850657 18.5011562,22.2850657 C18.7029194,22.2850657 18.873204,22.2145385 19.0205541,22.0686125 C19.1594349,21.9283076 19.2293125,21.7578981 19.2293125,21.5569094 L19.2293125,4.73246638 C19.2293125,4.53137771 19.1594349,4.3603187 19.0205541,4.22066338 C18.873204,4.08178254 18.7035939,4.01123037 18.5011562,4.01123037 C18.3063133,4.0112054 18.1359288,4.08178254 17.9893532,4.22066338 Z" id="形状" fill="#FFFFFF" fill-rule="nonzero"></path>
            </g>
        </g>
    </g>
</svg>