<?xml version="1.0" encoding="UTF-8"?>
<svg width="46px" height="46px" viewBox="0 0 46 46" version="1.1" xmlns="http://www.w3.org/2000/svg" xmlns:xlink="http://www.w3.org/1999/xlink">
    <!-- Generator: Sketch 52.6 (67491) - http://www.bohemiancoding.com/sketch -->
    <title>文化馆</title>
    <desc>Created with Sketch.</desc>
    <defs>
        <path d="M23.5,45 C26.0013891,45 28.3868285,36.9199043 30.5631667,36.034562 C37.2763812,33.3036019 42,26.7967127 42,19.2042033 C42,9.15029942 33.7172679,1 23.5,1 C13.2827321,1 5,9.15029942 5,19.2042033 C5,26.7532281 9.66966662,33.2290325 16.3216838,35.9872679 C18.5289223,36.9024915 20.9544197,45 23.5,45 Z" id="path-1"></path>
        <filter x="-27.0%" y="-22.7%" width="159.5%" height="150.0%" filterUnits="objectBoundingBox" id="filter-2">
            <feOffset dx="1" dy="1" in="SourceAlpha" result="shadowOffsetOuter1"></feOffset>
            <feGaussianBlur stdDeviation="3.5" in="shadowOffsetOuter1" result="shadowBlurOuter1"></feGaussianBlur>
            <feColorMatrix values="0 0 0 0 0.0156862745   0 0 0 0 0.376470588   0 0 0 0 0.933333333  0 0 0 0.199671649 0" type="matrix" in="shadowBlurOuter1"></feColorMatrix>
        </filter>
    </defs>
    <g id="文化馆" stroke="none" stroke-width="1" fill="none" fill-rule="evenodd">
        <g id="椭圆形">
            <use fill="black" fill-opacity="1" filter="url(#filter-2)" xlink:href="#path-1"></use>
            <use fill="#0460EE" fill-rule="evenodd" xlink:href="#path-1"></use>
        </g>
        <g id="扇子-copy" transform="translate(8.000000, 5.000000)">
            <g id="分组">
                <rect id="矩形" fill="#000000" opacity="0" x="0" y="0" width="30" height="30"></rect>
                <path d="M26.3622214,19.7946492 C26.3618917,19.7927605 26.3618917,19.7918311 26.361292,19.7899724 C26.3756823,19.7904521 26.3901025,19.7927905 26.4043129,19.7918611 C27.3560776,19.7471914 28.2848479,18.709505 27.9208347,17.4023012 C27.560449,16.1085584 26.3596432,15.7156448 25.4185512,16.1197408 C25.4050904,16.1253171 25.3936681,16.1332017 25.3815563,16.1402469 C25.3804171,16.1383582 25.3804171,16.1374288 25.3794877,16.1364995 C25.3624892,16.1476519 25.3536752,16.1537078 25.3357174,16.1653699 C25.3329293,16.1667789 25.3296016,16.1690574 25.3262138,16.1709461 C22.5426611,17.9474816 19.6714777,19.256574 16.6449997,20.131321 C19.8618787,19.4972808 23.0578018,19.3920222 26.2970456,19.7863748 C26.300793,19.7863748 26.3049303,19.7873042 26.3086777,19.7877539 C26.3302631,19.7904221 26.340756,19.7918312 26.3622214,19.7946492 Z M25.1184847,15.4874695 C25.1176524,15.4863648 25.1170879,15.485082 25.1168358,15.4837221 C25.1296971,15.4785955 25.1433678,15.4744283 25.1561991,15.4688521 C25.9659501,15.078247 26.6721813,13.8403862 26.0711787,12.7928964 C25.4790802,11.7603365 24.2983907,11.9167704 23.5567835,12.6122989 C23.5459009,12.6225519 23.5370868,12.634184 23.5268338,12.6448868 C23.5259045,12.6439574 23.5259045,12.643028 23.5249451,12.6420986 L23.4909182,12.6844599 C23.4883399,12.6877277 23.4860614,12.6905158 23.4836631,12.6942633 C21.32015,15.3459654 18.9835941,17.6121889 16.4156852,19.560478 C19.1860768,17.7681432 22.0479965,16.4343775 25.0581056,15.5051275 C25.0614333,15.5041982 25.0651508,15.5032688 25.0683886,15.5018597 C25.0884151,15.4963435 25.0984882,15.4930757 25.1184847,15.4874695 Z M23.1569146,12.1551688 C23.1560811,12.1543554 23.1553828,12.1534142 23.154846,12.1523807 C23.1655188,12.143057 23.1767312,12.1346927 23.1871941,12.1244396 C23.8373633,11.4698934 24.2353734,10.082614 23.4642063,9.33588026 C22.7039517,8.60029898 21.6536738,9.17291077 21.1278603,10.0844727 C21.1199457,10.0975139 21.1147892,10.1114544 21.1078639,10.1249753 C21.1071074,10.1242108 21.1062251,10.1235821 21.1052556,10.1231165 C21.0966814,10.1440723 21.0920046,10.1543254 21.0834005,10.1748015 C21.0822612,10.1785489 21.0801627,10.1822664 21.0785438,10.1859839 C19.6751353,13.4317333 18.0253238,16.3850909 16.0933137,19.132728 C18.2382695,16.4656463 20.5615443,14.1793664 23.1057093,12.1943222 C23.1087672,12.1919838 23.112035,12.1896454 23.115033,12.187337 C23.131282,12.1746856 23.1399161,12.16821 23.1569146,12.1551688 Z M20.6609269,9.79861652 C20.6597877,9.79768717 20.659308,9.79768717 20.6583786,9.79672781 C20.6660534,9.78368666 20.6744477,9.77160483 20.6821225,9.75856368 C21.1472272,8.89080202 21.185841,7.47090472 20.315711,7.0314327 C19.4544849,6.59660751 18.5969763,7.48580464 18.3160068,8.53419381 C18.3120794,8.54957338 18.3099509,8.56492298 18.3066831,8.57982287 C18.3055438,8.57982287 18.3050641,8.57982287 18.3036551,8.57889352 C18.3003873,8.60215775 18.2987684,8.61334017 18.2955306,8.6361547 C18.2948111,8.64035186 18.2943315,8.64409931 18.2936419,8.64826646 C17.7347608,12.196151 16.8779118,15.5638877 15.7031583,18.8468418 C17.0839321,15.5908994 18.7161454,12.6240209 20.6229726,9.85356929 C20.6248014,9.85030151 20.6271398,9.84658403 20.6294782,9.84331623 C20.6420996,9.82556827 20.6480956,9.81627457 20.6609269,9.79861652 Z M17.814177,8.41688335 C17.8129778,8.41640367 17.8122883,8.41640367 17.8109092,8.41595399 C17.8153162,8.4010541 17.8209224,8.38708356 17.8244001,8.37125429 C18.0660362,7.34891742 17.7525088,6.02213698 16.8423559,5.87967357 C15.9357405,5.73628078 15.3212472,6.87451907 15.3049083,7.96344079 C15.3049083,7.97924007 15.306797,7.99461964 15.3070068,8.01092859 L15.3042188,8.01092859 C15.306767,8.03326345 15.3074566,8.04489557 15.3098249,8.0677101 C15.3100348,8.07145755 15.3104845,8.07607441 15.3109642,8.07982189 C15.621014,11.6402679 15.6110007,15.1485493 15.2734896,18.7043484 C15.8065282,15.1522967 16.643141,11.7780844 17.7906429,8.48205917 C17.7922918,8.47789198 17.793431,8.47369485 17.7946303,8.47042705 C17.8024849,8.44899158 17.8065022,8.43828885 17.814177,8.41688335 Z M14.7991212,8.01047889 C14.797982,8.01095856 14.7972325,8.01095856 14.7958534,8.01095856 C14.7965729,7.99464961 14.7981918,7.97927004 14.7981918,7.96347076 C14.781643,6.87454904 14.1676293,5.73631078 13.261014,5.87877419 C12.3513408,6.02216698 12.0375435,7.34894742 12.2789099,8.37128426 C12.2824475,8.38708354 12.2879938,8.40108404 12.2924307,8.41598396 C12.2910517,8.41643367 12.2903022,8.41643367 12.2891629,8.41691332 C12.2965979,8.43831882 12.3007951,8.44902155 12.3084998,8.47045702 C12.3093693,8.47372479 12.3110481,8.47792195 12.3124272,8.48208914 C13.460199,11.7781144 14.2967818,15.1523267 14.8300602,18.7043784 C14.4923092,15.1486092 14.4818463,11.6402979 14.7923458,8.07985187 C14.7928255,8.07610441 14.7928255,8.07193723 14.7932752,8.06774007 L14.7991212,8.01047889 Z M11.7991752,8.57886354 C11.7977961,8.5797929 11.7975263,8.5797929 11.7961172,8.5797929 C11.7929094,8.56489301 11.7912306,8.54954341 11.7870334,8.53416384 C11.5063337,7.48622435 10.6487951,6.59657751 9.7880487,7.0314027 C8.91797862,7.46991539 8.95563308,8.89077205 9.42118743,9.75853371 C9.42841254,9.77157486 9.43701671,9.78368666 9.44493135,9.79669784 C9.44403196,9.7976272 9.44331243,9.7976272 9.44241305,9.79858655 C9.45476467,9.81624457 9.46103042,9.82556827 9.47383175,9.84325626 C9.47617017,9.84652403 9.47850858,9.85024151 9.48033732,9.85302964 C11.3867148,12.6243807 13.0194078,15.5903597 14.4001817,18.8467819 C13.2260577,15.5638277 12.3680694,12.196091 11.809668,8.64820652 C11.8087387,8.64403934 11.8084689,8.64029188 11.8078093,8.63609473 C11.8046447,8.617062 11.8017663,8.59798279 11.7991752,8.57886354 Z M8.99778451,10.1230566 C8.99685516,10.1235362 8.99640545,10.1239859 8.99544609,10.1249153 C8.98846084,10.1114244 8.98288462,10.0974539 8.97544966,10.0835134 C8.44960617,9.17384013 7.40004779,8.59981931 6.63913368,9.33585029 C5.86796654,10.082584 6.26600666,11.4698634 6.91614586,12.1244096 C6.92663874,12.1346627 6.93779118,12.143057 6.94849392,12.1528304 C6.94756456,12.1537597 6.94732471,12.1542094 6.94639535,12.1551688 C6.96315398,12.1682099 6.97199798,12.1747155 6.98830693,12.187277 C6.99154474,12.1896154 6.99457269,12.1924035 6.99715093,12.1942623 C9.54200552,14.1802358 11.8645908,16.4655863 14.0100262,19.132668 C12.0780461,16.3850309 10.4279348,13.432153 9.02434649,10.1859239 C9.02272758,10.1822065 9.0215584,10.178489 9.01990951,10.1747415 C9.01082566,10.1542654 9.00662851,10.1440423 8.99778451,10.1230566 Z M6.57836487,12.6420986 C6.57758354,12.6429094 6.57695398,12.6438537 6.57650613,12.6448868 C6.56625308,12.634184 6.55740908,12.6225519 6.54694617,12.6122989 C5.80509914,11.9167704 4.62425977,11.7612958 4.03234107,12.791997 C3.43178824,13.8394568 4.13664035,15.0782469 4.94735068,15.4688821 C4.95991216,15.4744883 4.97364287,15.4786255 4.98647417,15.483752 C4.98630762,15.4851369 4.98573375,15.4864411 4.98482528,15.4874995 C5.00482172,15.4931057 5.01483495,15.4963435 5.03441168,15.5018897 C5.03812916,15.5032988 5.04139693,15.5042281 5.04535424,15.5051575 C8.05528351,16.4343775 10.9171731,17.7685929 13.6874149,19.560508 C11.1199257,17.6122189 8.78319,15.3459654 6.61958692,12.6942933 C6.61724851,12.6905458 6.61446041,12.6877577 6.61260167,12.6844899 C6.59884099,12.6677013 6.5918857,12.6588873 6.57836487,12.6420986 Z M4.7234325,16.1364395 C4.72319268,16.1373688 4.72250314,16.1383282 4.72181361,16.1401869 C4.70970182,16.1331717 4.69830955,16.1252571 4.68478872,16.1196809 C3.74417646,15.7155848 2.54310079,16.1084984 2.1827451,17.4017916 C1.81849207,18.709475 2.74723236,19.7466818 3.69902707,19.7918312 C3.71323743,19.7927605 3.72765765,19.7904221 3.74207786,19.7899424 C3.74183804,19.7918311 3.74183804,19.7927605 3.74114851,19.7946192 C3.76279383,19.7918012 3.77304688,19.7903921 3.79469221,19.787664 C3.79864951,19.7872143 3.80236699,19.7862849 3.80632433,19.7862849 C7.04553814,19.3919323 10.2414613,19.4971609 13.4583403,20.1307513 C10.4318622,19.2564841 7.56043904,17.9473917 4.77718605,16.1708562 C4.7737084,16.1689675 4.77044063,16.166689 4.76765253,16.16528 C4.74975466,16.1536778 4.74088069,16.1475919 4.7234325,16.1364395 Z M15.020701,21.576761 C14.3405221,21.576761 13.7872472,21.0227666 13.7872472,20.3430374 C13.7872472,19.6624688 14.3405521,19.1088942 15.020701,19.1088942 C15.7012995,19.1088942 16.2545744,19.6624688 16.2545744,20.3430374 C16.2545744,21.0227665 15.7012995,21.576761 15.020701,21.576761 Z" id="形状" fill="#FFFFFF" fill-rule="nonzero"></path>
            </g>
        </g>
    </g>
</svg>