<?xml version="1.0" encoding="UTF-8"?>
<svg width="46px" height="46px" viewBox="0 0 46 46" version="1.1" xmlns="http://www.w3.org/2000/svg" xmlns:xlink="http://www.w3.org/1999/xlink">
    <!-- Generator: Sketch 52.6 (67491) - http://www.bohemiancoding.com/sketch -->
    <title>遗产名录</title>
    <desc>Created with Sketch.</desc>
    <defs>
        <path d="M23.5,45 C26.0013891,45 28.3868285,36.9199043 30.5631667,36.034562 C37.2763812,33.3036019 42,26.7967127 42,19.2042033 C42,9.15029942 33.7172679,1 23.5,1 C13.2827321,1 5,9.15029942 5,19.2042033 C5,26.7532281 9.66966662,33.2290325 16.3216838,35.9872679 C18.5289223,36.9024915 20.9544197,45 23.5,45 Z" id="path-1"></path>
        <filter x="-27.0%" y="-22.7%" width="159.5%" height="150.0%" filterUnits="objectBoundingBox" id="filter-2">
            <feOffset dx="1" dy="1" in="SourceAlpha" result="shadowOffsetOuter1"></feOffset>
            <feGaussianBlur stdDeviation="3.5" in="shadowOffsetOuter1" result="shadowBlurOuter1"></feGaussianBlur>
            <feColorMatrix values="0 0 0 0 0.0156862745   0 0 0 0 0.376470588   0 0 0 0 0.933333333  0 0 0 0.199671649 0" type="matrix" in="shadowBlurOuter1"></feColorMatrix>
        </filter>
    </defs>
    <g id="遗产名录" stroke="none" stroke-width="1" fill="none" fill-rule="evenodd">
        <g id="椭圆形-copy-5">
            <use fill="black" fill-opacity="1" filter="url(#filter-2)" xlink:href="#path-1"></use>
            <use fill="#0460EE" fill-rule="evenodd" xlink:href="#path-1"></use>
        </g>
        <g id="文物监测" transform="translate(12.000000, 12.000000)" fill="#FFFFFF" fill-rule="nonzero">
            <path d="M3.34837629,11.8981163 C0.860212276,11.8981163 7.54951657e-15,12.7188722 7.54951657e-15,13.9490582 C7.42775056e-15,15.1792442 0.860212276,16 3.34837629,16 C5.8365403,16 6.69675257,15.1792442 6.69675257,13.9490582 C6.69675257,12.7188722 5.8365403,11.8981163 3.34837629,11.8981163 Z M21.5268122,1.23208151 L19.6128399,1.23208151 C19.3268193,1.23208151 19.1354221,1.39699088 19.1354221,1.64151167 L19.1354221,3.6924535 L18.1784359,3.6924535 L18.1784359,0.820755835 C18.1784359,0.574339533 17.9870387,0.411325672 17.7010181,0.411325672 L15.7870458,0.411325672 C15.5010252,0.411325672 15.309628,0.576235043 15.309628,0.820755835 L15.309628,2.87169767 L14.3526418,2.87169767 L14.3526418,0.820755835 C14.3526418,0.574339533 14.1612446,0.411325672 13.875224,0.411325672 L11.9612517,0.411325672 C11.6752311,0.411325672 11.4838339,0.576235043 11.4838339,0.820755835 L11.4838339,2.87169767 L10.5268477,2.87169767 L10.5268477,1.64151167 C10.5268477,1.39509537 10.3354505,1.23208151 10.0494299,1.23208151 L8.1354576,1.23208151 C7.84943702,1.23208151 7.65803979,1.39699088 7.65803979,1.64151167 L7.65803979,3.6924535 L6.70105363,3.6924535 L6.70105363,2.05094183 C6.70105363,0.820755835 5.84084136,0 3.35267735,0 C0.860212276,2.69368174e-16 0,0.820755835 0,2.05283734 L0,11.9000118 C0.765588926,11.3256723 1.81719843,11.079256 3.34837629,11.079256 C4.87955414,11.079256 5.93116365,11.3256723 6.69675257,11.9000118 L6.69675257,11.079256 L7.65373873,11.079256 L7.65373873,13.1301978 C7.65373873,13.3766141 7.84513596,13.539628 8.13115654,13.539628 L10.0451289,13.539628 C10.3311494,13.539628 10.5225467,13.3747186 10.5225467,13.1301978 L10.5225467,10.2566047 L11.4795328,10.2566047 L11.4795328,12.3075465 C11.4795328,12.5539628 11.6709301,12.7169767 11.9569506,12.7169767 L13.870923,12.7169767 C14.1569435,12.7169767 14.3483408,12.5520673 14.3483408,12.3075465 L14.3483408,10.2566047 L15.3053269,10.2566047 L15.3053269,12.3075465 C15.3053269,12.5539628 15.4967242,12.7169767 15.7827447,12.7169767 L17.6967171,12.7169767 C17.9827376,12.7169767 18.1741349,12.5520673 18.1741349,12.3075465 L18.1741349,11.0773605 L19.131121,11.0773605 L19.131121,13.1283023 C19.131121,13.3747186 19.3225183,13.5377325 19.6085388,13.5377325 L21.5225112,13.5377325 C21.8085317,13.5377325 21.999929,13.3728231 21.999929,13.1283023 L21.999929,1.64151167 C22.00423,1.39509537 21.8128328,1.23208151 21.5268122,1.23208151 Z M7.65373873,10.2566047 L6.69675257,10.2566047 L6.69675257,4.51320934 L7.65373873,4.51320934 L7.65373873,10.2566047 Z M11.4795328,9.43774434 L10.5225467,9.43774434 L10.5225467,3.69434901 L11.4795328,3.69434901 L11.4795328,9.43774434 Z M15.3074775,9.43774434 L14.3504913,9.43774434 L14.3504913,3.69434901 L15.3074775,3.69434901 L15.3074775,9.43774434 Z M19.1332716,10.2566047 L18.1762854,10.2566047 L18.1762854,4.51320934 L19.1332716,4.51320934 L19.1332716,10.2566047 Z" id="形状"></path>
        </g>
    </g>
</svg>